<svg xmlns="http://www.w3.org/2000/svg" viewBox="0 0 600 420" role="img" aria-label="Illustration of a pickleball paddle and ball on a sunny court">
<rect width="600" height="420" fill="#F4D48A"/>
<circle cx="480" cy="90" r="46" fill="#CE9A38"/>
<rect x="0" y="280" width="600" height="140" fill="#3B5A45"/>
<path d="M0 300H600M0 395H600M300 280V420" stroke="#fff" stroke-width="3"/>
<g transform="translate(170 110) rotate(-24)"><rect x="-70" y="-95" width="140" height="170" rx="58" fill="#8A3B29"/><rect x="-70" y="-95" width="140" height="170" rx="58" fill="none" stroke="#12251A" stroke-width="5"/><rect x="-16" y="70" width="32" height="96" rx="8" fill="#12251A"/><rect x="-16" y="120" width="32" height="10" fill="#CE9A38"/></g>
<g transform="translate(360 215)"><circle r="40" fill="#E9D94B"/><circle cx="-18" cy="-14" r="6" fill="#C9B52E"/><circle cx="10" cy="-22" r="6" fill="#C9B52E"/><circle cx="20" cy="4" r="6" fill="#C9B52E"/><circle cx="-4" cy="6" r="6" fill="#C9B52E"/><circle cx="-22" cy="14" r="6" fill="#C9B52E"/><circle cx="6" cy="26" r="6" fill="#C9B52E"/></g>
<path d="M330 180 q-60 -60 -120 -40" stroke="#12251A" stroke-width="2" stroke-dasharray="4 7" fill="none"/>
</svg>